<svg id="lovePoint" xmlns="http://www.w3.org/2000/svg" viewBox="0 0 32 32" width="32" height="32" fill="currentcolor">
  <path d="M381 466c-48 11-90 4-125-17-35 21-77 28-125 17-76-17-112-70-100-123 21-94 142-75 156-136 2-9-1-23-10-33l42-8c14 18 16 37 12 56-18 78-131 60-145 125-7 32 11 64 59 74 47 11 81-2 111-28 30 26 64 39 111 28 48-10 66-42 59-74-14-65-127-47-145-125-4-20-1-38 12-57l42 9c-9 10-12 23-10 33 14 61 136 42 156 136 12 53-24 106-100 123z m-132-356c-18-4-30-23-26-42 4-18 23-30 42-26 18 4 30 23 26 42-4 18-23 30-42 26z"></path>
</svg>